<mxfile host="65bd71144e">
    <diagram id="khGZkgccO-NBivH-ns-C" name="第 1 页">
        <mxGraphModel dx="638" dy="1654" grid="1" gridSize="10" guides="1" tooltips="1" connect="1" arrows="1" fold="1" page="1" pageScale="1" pageWidth="827" pageHeight="1169" math="0" shadow="0">
            <root>
                <mxCell id="0"/>
                <mxCell id="1" parent="0"/>
                <mxCell id="2" value="&lt;div&gt;express.js&lt;/div&gt;Fun createApplication" style="swimlane;fontStyle=1;align=center;verticalAlign=middle;childLayout=stackLayout;horizontal=1;startSize=29;horizontalStack=0;resizeParent=1;resizeParentMax=0;resizeLast=0;collapsible=0;marginBottom=0;html=1;whiteSpace=wrap;" vertex="1" parent="1">
                    <mxGeometry x="300" y="50" width="140" height="304" as="geometry"/>
                </mxCell>
                <mxCell id="3" value="application" style="text;html=1;strokeColor=none;fillColor=none;align=center;verticalAlign=middle;spacingLeft=4;spacingRight=4;overflow=hidden;rotatable=0;points=[[0,0.5],[1,0.5]];portConstraint=eastwest;whiteSpace=wrap;" vertex="1" parent="2">
                    <mxGeometry y="29" width="140" height="25" as="geometry"/>
                </mxCell>
                <mxCell id="4" value="request" style="text;html=1;strokeColor=none;fillColor=none;align=center;verticalAlign=middle;spacingLeft=4;spacingRight=4;overflow=hidden;rotatable=0;points=[[0,0.5],[1,0.5]];portConstraint=eastwest;whiteSpace=wrap;labelPosition=center;verticalLabelPosition=middle;" vertex="1" parent="2">
                    <mxGeometry y="54" width="140" height="25" as="geometry"/>
                </mxCell>
                <mxCell id="5" value="response" style="text;html=1;strokeColor=none;fillColor=none;align=center;verticalAlign=middle;spacingLeft=4;spacingRight=4;overflow=hidden;rotatable=0;points=[[0,0.5],[1,0.5]];portConstraint=eastwest;whiteSpace=wrap;" vertex="1" parent="2">
                    <mxGeometry y="79" width="140" height="25" as="geometry"/>
                </mxCell>
                <mxCell id="6" value="Route" style="text;html=1;strokeColor=none;fillColor=none;align=center;verticalAlign=middle;spacingLeft=4;spacingRight=4;overflow=hidden;rotatable=0;points=[[0,0.5],[1,0.5]];portConstraint=eastwest;whiteSpace=wrap;" vertex="1" parent="2">
                    <mxGeometry y="104" width="140" height="25" as="geometry"/>
                </mxCell>
                <mxCell id="7" value="Router" style="text;html=1;strokeColor=none;fillColor=none;align=center;verticalAlign=middle;spacingLeft=4;spacingRight=4;overflow=hidden;rotatable=0;points=[[0,0.5],[1,0.5]];portConstraint=eastwest;whiteSpace=wrap;" vertex="1" parent="2">
                    <mxGeometry y="129" width="140" height="25" as="geometry"/>
                </mxCell>
                <mxCell id="8" value="json" style="text;html=1;strokeColor=none;fillColor=none;align=center;verticalAlign=middle;spacingLeft=4;spacingRight=4;overflow=hidden;rotatable=0;points=[[0,0.5],[1,0.5]];portConstraint=eastwest;whiteSpace=wrap;" vertex="1" parent="2">
                    <mxGeometry y="154" width="140" height="25" as="geometry"/>
                </mxCell>
                <mxCell id="9" value="query" style="text;html=1;strokeColor=none;fillColor=none;align=center;verticalAlign=middle;spacingLeft=4;spacingRight=4;overflow=hidden;rotatable=0;points=[[0,0.5],[1,0.5]];portConstraint=eastwest;whiteSpace=wrap;" vertex="1" parent="2">
                    <mxGeometry y="179" width="140" height="25" as="geometry"/>
                </mxCell>
                <mxCell id="10" value="raw" style="text;html=1;strokeColor=none;fillColor=none;align=center;verticalAlign=middle;spacingLeft=4;spacingRight=4;overflow=hidden;rotatable=0;points=[[0,0.5],[1,0.5]];portConstraint=eastwest;whiteSpace=wrap;" vertex="1" parent="2">
                    <mxGeometry y="204" width="140" height="25" as="geometry"/>
                </mxCell>
                <mxCell id="11" value="static" style="text;html=1;strokeColor=none;fillColor=none;align=center;verticalAlign=middle;spacingLeft=4;spacingRight=4;overflow=hidden;rotatable=0;points=[[0,0.5],[1,0.5]];portConstraint=eastwest;whiteSpace=wrap;" vertex="1" parent="2">
                    <mxGeometry y="229" width="140" height="25" as="geometry"/>
                </mxCell>
                <mxCell id="12" value="text" style="text;html=1;strokeColor=none;fillColor=none;align=center;verticalAlign=middle;spacingLeft=4;spacingRight=4;overflow=hidden;rotatable=0;points=[[0,0.5],[1,0.5]];portConstraint=eastwest;whiteSpace=wrap;" vertex="1" parent="2">
                    <mxGeometry y="254" width="140" height="25" as="geometry"/>
                </mxCell>
                <mxCell id="13" value="urlencoded" style="text;html=1;strokeColor=none;fillColor=none;align=center;verticalAlign=middle;spacingLeft=4;spacingRight=4;overflow=hidden;rotatable=0;points=[[0,0.5],[1,0.5]];portConstraint=eastwest;whiteSpace=wrap;" vertex="1" parent="2">
                    <mxGeometry y="279" width="140" height="25" as="geometry"/>
                </mxCell>
                <mxCell id="14" value="application.js&lt;div&gt;Obj&amp;nbsp; app&lt;/div&gt;" style="swimlane;fontStyle=1;align=center;verticalAlign=middle;childLayout=stackLayout;horizontal=1;startSize=29;horizontalStack=0;resizeParent=1;resizeParentMax=0;resizeLast=0;collapsible=0;marginBottom=0;html=1;whiteSpace=wrap;" vertex="1" parent="1">
                    <mxGeometry x="300" y="-290" width="140" height="254" as="geometry"/>
                </mxCell>
                <mxCell id="15" value="init" style="text;html=1;strokeColor=none;fillColor=none;align=center;verticalAlign=middle;spacingLeft=4;spacingRight=4;overflow=hidden;rotatable=0;points=[[0,0.5],[1,0.5]];portConstraint=eastwest;whiteSpace=wrap;" vertex="1" parent="14">
                    <mxGeometry y="29" width="140" height="25" as="geometry"/>
                </mxCell>
                <mxCell id="16" value="defaultConfiguration" style="text;html=1;strokeColor=none;fillColor=none;align=center;verticalAlign=middle;spacingLeft=4;spacingRight=4;overflow=hidden;rotatable=0;points=[[0,0.5],[1,0.5]];portConstraint=eastwest;whiteSpace=wrap;labelPosition=center;verticalLabelPosition=middle;" vertex="1" parent="14">
                    <mxGeometry y="54" width="140" height="25" as="geometry"/>
                </mxCell>
                <mxCell id="17" value="lazyrouter" style="text;html=1;strokeColor=none;fillColor=none;align=center;verticalAlign=middle;spacingLeft=4;spacingRight=4;overflow=hidden;rotatable=0;points=[[0,0.5],[1,0.5]];portConstraint=eastwest;whiteSpace=wrap;labelPosition=center;verticalLabelPosition=middle;" vertex="1" parent="14">
                    <mxGeometry y="79" width="140" height="25" as="geometry"/>
                </mxCell>
                <mxCell id="18" value="handle" style="text;html=1;strokeColor=none;fillColor=none;align=center;verticalAlign=middle;spacingLeft=4;spacingRight=4;overflow=hidden;rotatable=0;points=[[0,0.5],[1,0.5]];portConstraint=eastwest;whiteSpace=wrap;labelPosition=center;verticalLabelPosition=middle;" vertex="1" parent="14">
                    <mxGeometry y="104" width="140" height="25" as="geometry"/>
                </mxCell>
                <mxCell id="19" value="use" style="text;html=1;strokeColor=none;fillColor=none;align=center;verticalAlign=middle;spacingLeft=4;spacingRight=4;overflow=hidden;rotatable=0;points=[[0,0.5],[1,0.5]];portConstraint=eastwest;whiteSpace=wrap;labelPosition=center;verticalLabelPosition=middle;" vertex="1" parent="14">
                    <mxGeometry y="129" width="140" height="25" as="geometry"/>
                </mxCell>
                <mxCell id="20" value="route" style="text;html=1;strokeColor=none;fillColor=none;align=center;verticalAlign=middle;spacingLeft=4;spacingRight=4;overflow=hidden;rotatable=0;points=[[0,0.5],[1,0.5]];portConstraint=eastwest;whiteSpace=wrap;labelPosition=center;verticalLabelPosition=middle;" vertex="1" parent="14">
                    <mxGeometry y="154" width="140" height="25" as="geometry"/>
                </mxCell>
                <mxCell id="21" value="engine" style="text;html=1;strokeColor=none;fillColor=none;align=center;verticalAlign=middle;spacingLeft=4;spacingRight=4;overflow=hidden;rotatable=0;points=[[0,0.5],[1,0.5]];portConstraint=eastwest;whiteSpace=wrap;labelPosition=center;verticalLabelPosition=middle;" vertex="1" parent="14">
                    <mxGeometry y="179" width="140" height="25" as="geometry"/>
                </mxCell>
                <mxCell id="22" value="param" style="text;html=1;strokeColor=none;fillColor=none;align=center;verticalAlign=middle;spacingLeft=4;spacingRight=4;overflow=hidden;rotatable=0;points=[[0,0.5],[1,0.5]];portConstraint=eastwest;whiteSpace=wrap;labelPosition=center;verticalLabelPosition=middle;" vertex="1" parent="14">
                    <mxGeometry y="204" width="140" height="25" as="geometry"/>
                </mxCell>
                <mxCell id="23" value="set" style="text;html=1;strokeColor=none;fillColor=none;align=center;verticalAlign=middle;spacingLeft=4;spacingRight=4;overflow=hidden;rotatable=0;points=[[0,0.5],[1,0.5]];portConstraint=eastwest;whiteSpace=wrap;labelPosition=center;verticalLabelPosition=middle;" vertex="1" parent="14">
                    <mxGeometry y="229" width="140" height="25" as="geometry"/>
                </mxCell>
                <mxCell id="24" style="edgeStyle=none;html=1;entryX=0;entryY=0;entryDx=0;entryDy=0;" edge="1" parent="1" source="3" target="14">
                    <mxGeometry relative="1" as="geometry">
                        <mxPoint x="230" y="-160" as="targetPoint"/>
                        <Array as="points">
                            <mxPoint x="240" y="92"/>
                            <mxPoint x="240" y="-290"/>
                        </Array>
                    </mxGeometry>
                </mxCell>
                <mxCell id="25" style="edgeStyle=none;html=1;entryX=1;entryY=0;entryDx=0;entryDy=0;exitX=0.5;exitY=0;exitDx=0;exitDy=0;" edge="1" parent="1" source="29" target="14">
                    <mxGeometry relative="1" as="geometry">
                        <mxPoint x="520" y="-140" as="targetPoint"/>
                    </mxGeometry>
                </mxCell>
                <mxCell id="26" value="extend" style="edgeLabel;html=1;align=center;verticalAlign=middle;resizable=0;points=[];" vertex="1" connectable="0" parent="25">
                    <mxGeometry x="-0.028" y="1" relative="1" as="geometry">
                        <mxPoint as="offset"/>
                    </mxGeometry>
                </mxCell>
                <mxCell id="27" style="edgeStyle=none;html=1;entryX=0;entryY=0;entryDx=0;entryDy=0;exitX=0.5;exitY=0;exitDx=0;exitDy=0;" edge="1" parent="1" source="29" target="40">
                    <mxGeometry relative="1" as="geometry">
                        <mxPoint x="841" y="-189" as="targetPoint"/>
                    </mxGeometry>
                </mxCell>
                <mxCell id="28" value="extend" style="edgeLabel;html=1;align=center;verticalAlign=middle;resizable=0;points=[];" vertex="1" connectable="0" parent="27">
                    <mxGeometry relative="1" as="geometry">
                        <mxPoint as="offset"/>
                    </mxGeometry>
                </mxCell>
                <mxCell id="29" value="Fun app" style="swimlane;fontStyle=1;align=center;verticalAlign=middle;childLayout=stackLayout;horizontal=1;startSize=29;horizontalStack=0;resizeParent=1;resizeParentMax=0;resizeLast=0;collapsible=0;marginBottom=0;html=1;whiteSpace=wrap;" vertex="1" parent="1">
                    <mxGeometry x="721" y="51" width="140" height="190" as="geometry"/>
                </mxCell>
                <mxCell id="30" value="request" style="text;html=1;strokeColor=none;fillColor=none;align=center;verticalAlign=middle;spacingLeft=4;spacingRight=4;overflow=hidden;rotatable=0;points=[[0,0.5],[1,0.5]];portConstraint=eastwest;whiteSpace=wrap;" vertex="1" parent="29">
                    <mxGeometry y="29" width="140" height="25" as="geometry"/>
                </mxCell>
                <mxCell id="31" value="response" style="text;html=1;strokeColor=none;fillColor=none;align=center;verticalAlign=middle;spacingLeft=4;spacingRight=4;overflow=hidden;rotatable=0;points=[[0,0.5],[1,0.5]];portConstraint=eastwest;whiteSpace=wrap;" vertex="1" parent="29">
                    <mxGeometry y="54" width="140" height="25" as="geometry"/>
                </mxCell>
                <mxCell id="32" value="init()" style="text;html=1;strokeColor=none;fillColor=none;align=center;verticalAlign=middle;spacingLeft=4;spacingRight=4;overflow=hidden;rotatable=0;points=[[0,0.5],[1,0.5]];portConstraint=eastwest;whiteSpace=wrap;" vertex="1" parent="29">
                    <mxGeometry y="79" width="140" height="25" as="geometry"/>
                </mxCell>
                <mxCell id="33" value="handle()" style="text;html=1;strokeColor=none;fillColor=none;align=center;verticalAlign=middle;spacingLeft=4;spacingRight=4;overflow=hidden;rotatable=0;points=[[0,0.5],[1,0.5]];portConstraint=eastwest;whiteSpace=wrap;" vertex="1" parent="29">
                    <mxGeometry y="104" width="140" height="25" as="geometry"/>
                </mxCell>
                <mxCell id="34" style="edgeStyle=none;html=1;exitX=1;exitY=0;exitDx=0;exitDy=0;entryX=1;entryY=0.5;entryDx=0;entryDy=0;" edge="1" parent="29" source="29" target="33">
                    <mxGeometry relative="1" as="geometry">
                        <mxPoint x="210" y="100" as="targetPoint"/>
                        <Array as="points">
                            <mxPoint x="180" y="70"/>
                        </Array>
                    </mxGeometry>
                </mxCell>
                <mxCell id="35" value="run" style="edgeLabel;html=1;align=center;verticalAlign=middle;resizable=0;points=[];" vertex="1" connectable="0" parent="34">
                    <mxGeometry x="-0.1091" y="3" relative="1" as="geometry">
                        <mxPoint as="offset"/>
                    </mxGeometry>
                </mxCell>
                <mxCell id="36" value="_router&amp;nbsp;" style="text;html=1;strokeColor=none;fillColor=none;align=center;verticalAlign=middle;spacingLeft=4;spacingRight=4;overflow=hidden;rotatable=0;points=[[0,0.5],[1,0.5]];portConstraint=eastwest;whiteSpace=wrap;" vertex="1" parent="29">
                    <mxGeometry y="129" width="140" height="25" as="geometry"/>
                </mxCell>
                <mxCell id="37" value="use/get/all/... 创建单例router" style="text;html=1;strokeColor=none;fillColor=none;align=center;verticalAlign=middle;spacingLeft=4;spacingRight=4;overflow=hidden;rotatable=0;points=[[0,0.5],[1,0.5]];portConstraint=eastwest;whiteSpace=wrap;" vertex="1" parent="29">
                    <mxGeometry y="154" width="140" height="36" as="geometry"/>
                </mxCell>
                <mxCell id="38" style="edgeStyle=none;html=1;exitX=1;exitY=0;exitDx=0;exitDy=0;entryX=0;entryY=0;entryDx=0;entryDy=0;" edge="1" parent="1" source="2" target="29">
                    <mxGeometry relative="1" as="geometry">
                        <mxPoint x="560" y="50" as="targetPoint"/>
                    </mxGeometry>
                </mxCell>
                <mxCell id="39" value="run" style="edgeLabel;html=1;align=center;verticalAlign=middle;resizable=0;points=[];" vertex="1" connectable="0" parent="38">
                    <mxGeometry x="-0.0167" y="2" relative="1" as="geometry">
                        <mxPoint as="offset"/>
                    </mxGeometry>
                </mxCell>
                <mxCell id="40" value="EventEmitter" style="swimlane;fontStyle=1;align=center;verticalAlign=middle;childLayout=stackLayout;horizontal=1;startSize=29;horizontalStack=0;resizeParent=1;resizeParentMax=0;resizeLast=0;collapsible=0;marginBottom=0;html=1;whiteSpace=wrap;" vertex="1" parent="1">
                    <mxGeometry x="921" y="-289" width="140" height="179" as="geometry"/>
                </mxCell>
                <mxCell id="41" value="once" style="text;html=1;strokeColor=none;fillColor=none;align=center;verticalAlign=middle;spacingLeft=4;spacingRight=4;overflow=hidden;rotatable=0;points=[[0,0.5],[1,0.5]];portConstraint=eastwest;whiteSpace=wrap;" vertex="1" parent="40">
                    <mxGeometry y="29" width="140" height="25" as="geometry"/>
                </mxCell>
                <mxCell id="42" value="on" style="text;html=1;strokeColor=none;fillColor=none;align=center;verticalAlign=middle;spacingLeft=4;spacingRight=4;overflow=hidden;rotatable=0;points=[[0,0.5],[1,0.5]];portConstraint=eastwest;whiteSpace=wrap;labelPosition=center;verticalLabelPosition=middle;" vertex="1" parent="40">
                    <mxGeometry y="54" width="140" height="25" as="geometry"/>
                </mxCell>
                <mxCell id="43" value="getEventListeners" style="text;html=1;strokeColor=none;fillColor=none;align=center;verticalAlign=middle;spacingLeft=4;spacingRight=4;overflow=hidden;rotatable=0;points=[[0,0.5],[1,0.5]];portConstraint=eastwest;whiteSpace=wrap;labelPosition=center;verticalLabelPosition=middle;" vertex="1" parent="40">
                    <mxGeometry y="79" width="140" height="25" as="geometry"/>
                </mxCell>
                <mxCell id="44" value="getMaxListeners" style="text;html=1;strokeColor=none;fillColor=none;align=center;verticalAlign=middle;spacingLeft=4;spacingRight=4;overflow=hidden;rotatable=0;points=[[0,0.5],[1,0.5]];portConstraint=eastwest;whiteSpace=wrap;labelPosition=center;verticalLabelPosition=middle;" vertex="1" parent="40">
                    <mxGeometry y="104" width="140" height="25" as="geometry"/>
                </mxCell>
                <mxCell id="45" value="setMaxListeners" style="text;html=1;strokeColor=none;fillColor=none;align=center;verticalAlign=middle;spacingLeft=4;spacingRight=4;overflow=hidden;rotatable=0;points=[[0,0.5],[1,0.5]];portConstraint=eastwest;whiteSpace=wrap;labelPosition=center;verticalLabelPosition=middle;" vertex="1" parent="40">
                    <mxGeometry y="129" width="140" height="25" as="geometry"/>
                </mxCell>
                <mxCell id="46" value="addAbortListeners" style="text;html=1;strokeColor=none;fillColor=none;align=center;verticalAlign=middle;spacingLeft=4;spacingRight=4;overflow=hidden;rotatable=0;points=[[0,0.5],[1,0.5]];portConstraint=eastwest;whiteSpace=wrap;labelPosition=center;verticalLabelPosition=middle;" vertex="1" parent="40">
                    <mxGeometry y="154" width="140" height="25" as="geometry"/>
                </mxCell>
                <mxCell id="47" value="extend" style="edgeStyle=none;html=1;" edge="1" parent="1" source="48" target="62">
                    <mxGeometry relative="1" as="geometry"/>
                </mxCell>
                <mxCell id="48" value="request.js&lt;div&gt;Obj&amp;nbsp; req&lt;/div&gt;" style="swimlane;fontStyle=1;align=center;verticalAlign=middle;childLayout=stackLayout;horizontal=1;startSize=29;horizontalStack=0;resizeParent=1;resizeParentMax=0;resizeLast=0;collapsible=0;marginBottom=0;html=1;whiteSpace=wrap;" vertex="1" parent="1">
                    <mxGeometry x="40" y="-290" width="140" height="354" as="geometry"/>
                </mxCell>
                <mxCell id="49" value="get" style="text;html=1;strokeColor=none;fillColor=none;align=center;verticalAlign=middle;spacingLeft=4;spacingRight=4;overflow=hidden;rotatable=0;points=[[0,0.5],[1,0.5]];portConstraint=eastwest;whiteSpace=wrap;" vertex="1" parent="48">
                    <mxGeometry y="29" width="140" height="25" as="geometry"/>
                </mxCell>
                <mxCell id="50" value="header" style="text;html=1;strokeColor=none;fillColor=none;align=center;verticalAlign=middle;spacingLeft=4;spacingRight=4;overflow=hidden;rotatable=0;points=[[0,0.5],[1,0.5]];portConstraint=eastwest;whiteSpace=wrap;labelPosition=center;verticalLabelPosition=middle;" vertex="1" parent="48">
                    <mxGeometry y="54" width="140" height="25" as="geometry"/>
                </mxCell>
                <mxCell id="51" value="accepts" style="text;html=1;strokeColor=none;fillColor=none;align=center;verticalAlign=middle;spacingLeft=4;spacingRight=4;overflow=hidden;rotatable=0;points=[[0,0.5],[1,0.5]];portConstraint=eastwest;whiteSpace=wrap;labelPosition=center;verticalLabelPosition=middle;" vertex="1" parent="48">
                    <mxGeometry y="79" width="140" height="25" as="geometry"/>
                </mxCell>
                <mxCell id="52" value="acceptsEncodings" style="text;html=1;strokeColor=none;fillColor=none;align=center;verticalAlign=middle;spacingLeft=4;spacingRight=4;overflow=hidden;rotatable=0;points=[[0,0.5],[1,0.5]];portConstraint=eastwest;whiteSpace=wrap;labelPosition=center;verticalLabelPosition=middle;" vertex="1" parent="48">
                    <mxGeometry y="104" width="140" height="25" as="geometry"/>
                </mxCell>
                <mxCell id="53" value="&lt;span style=&quot;color: rgb(0, 0, 0);&quot;&gt;acceptsEncoding&lt;/span&gt;" style="text;html=1;strokeColor=none;fillColor=none;align=center;verticalAlign=middle;spacingLeft=4;spacingRight=4;overflow=hidden;rotatable=0;points=[[0,0.5],[1,0.5]];portConstraint=eastwest;whiteSpace=wrap;labelPosition=center;verticalLabelPosition=middle;" vertex="1" parent="48">
                    <mxGeometry y="129" width="140" height="25" as="geometry"/>
                </mxCell>
                <mxCell id="54" value="acceptsCharsets" style="text;html=1;strokeColor=none;fillColor=none;align=center;verticalAlign=middle;spacingLeft=4;spacingRight=4;overflow=hidden;rotatable=0;points=[[0,0.5],[1,0.5]];portConstraint=eastwest;whiteSpace=wrap;labelPosition=center;verticalLabelPosition=middle;" vertex="1" parent="48">
                    <mxGeometry y="154" width="140" height="25" as="geometry"/>
                </mxCell>
                <mxCell id="55" value="acceptsCharset" style="text;html=1;strokeColor=none;fillColor=none;align=center;verticalAlign=middle;spacingLeft=4;spacingRight=4;overflow=hidden;rotatable=0;points=[[0,0.5],[1,0.5]];portConstraint=eastwest;whiteSpace=wrap;labelPosition=center;verticalLabelPosition=middle;" vertex="1" parent="48">
                    <mxGeometry y="179" width="140" height="25" as="geometry"/>
                </mxCell>
                <mxCell id="56" value="acceptsLanguages" style="text;html=1;strokeColor=none;fillColor=none;align=center;verticalAlign=middle;spacingLeft=4;spacingRight=4;overflow=hidden;rotatable=0;points=[[0,0.5],[1,0.5]];portConstraint=eastwest;whiteSpace=wrap;labelPosition=center;verticalLabelPosition=middle;" vertex="1" parent="48">
                    <mxGeometry y="204" width="140" height="25" as="geometry"/>
                </mxCell>
                <mxCell id="57" value="acceptsLanguage" style="text;html=1;strokeColor=none;fillColor=none;align=center;verticalAlign=middle;spacingLeft=4;spacingRight=4;overflow=hidden;rotatable=0;points=[[0,0.5],[1,0.5]];portConstraint=eastwest;whiteSpace=wrap;labelPosition=center;verticalLabelPosition=middle;" vertex="1" parent="48">
                    <mxGeometry y="229" width="140" height="25" as="geometry"/>
                </mxCell>
                <mxCell id="58" value="range" style="text;html=1;strokeColor=none;fillColor=none;align=center;verticalAlign=middle;spacingLeft=4;spacingRight=4;overflow=hidden;rotatable=0;points=[[0,0.5],[1,0.5]];portConstraint=eastwest;whiteSpace=wrap;labelPosition=center;verticalLabelPosition=middle;" vertex="1" parent="48">
                    <mxGeometry y="254" width="140" height="25" as="geometry"/>
                </mxCell>
                <mxCell id="59" value="param" style="text;html=1;strokeColor=none;fillColor=none;align=center;verticalAlign=middle;spacingLeft=4;spacingRight=4;overflow=hidden;rotatable=0;points=[[0,0.5],[1,0.5]];portConstraint=eastwest;whiteSpace=wrap;labelPosition=center;verticalLabelPosition=middle;" vertex="1" parent="48">
                    <mxGeometry y="279" width="140" height="25" as="geometry"/>
                </mxCell>
                <mxCell id="60" value="is" style="text;html=1;strokeColor=none;fillColor=none;align=center;verticalAlign=middle;spacingLeft=4;spacingRight=4;overflow=hidden;rotatable=0;points=[[0,0.5],[1,0.5]];portConstraint=eastwest;whiteSpace=wrap;labelPosition=center;verticalLabelPosition=middle;" vertex="1" parent="48">
                    <mxGeometry y="304" width="140" height="25" as="geometry"/>
                </mxCell>
                <mxCell id="61" value="...." style="text;html=1;strokeColor=none;fillColor=none;align=center;verticalAlign=middle;spacingLeft=4;spacingRight=4;overflow=hidden;rotatable=0;points=[[0,0.5],[1,0.5]];portConstraint=eastwest;whiteSpace=wrap;labelPosition=center;verticalLabelPosition=middle;" vertex="1" parent="48">
                    <mxGeometry y="329" width="140" height="25" as="geometry"/>
                </mxCell>
                <mxCell id="62" value="http.IncomingMessage" style="whiteSpace=wrap;html=1;fontStyle=1;startSize=29;" vertex="1" parent="1">
                    <mxGeometry x="40" y="-440" width="140" height="60" as="geometry"/>
                </mxCell>
                <mxCell id="63" style="edgeStyle=none;html=1;exitX=0;exitY=0.5;exitDx=0;exitDy=0;entryX=1;entryY=0;entryDx=0;entryDy=0;" edge="1" parent="1" source="4" target="48">
                    <mxGeometry relative="1" as="geometry">
                        <mxPoint x="50" y="110" as="targetPoint"/>
                        <Array as="points">
                            <mxPoint x="200" y="117"/>
                            <mxPoint x="200" y="-290"/>
                        </Array>
                    </mxGeometry>
                </mxCell>
                <mxCell id="64" style="edgeStyle=none;html=1;exitX=0;exitY=0.25;exitDx=0;exitDy=0;entryX=1;entryY=0.5;entryDx=0;entryDy=0;" edge="1" parent="1" source="66" target="4">
                    <mxGeometry relative="1" as="geometry"/>
                </mxCell>
                <mxCell id="65" value="extend" style="edgeLabel;html=1;align=center;verticalAlign=middle;resizable=0;points=[];" vertex="1" connectable="0" parent="64">
                    <mxGeometry x="-0.1287" y="-1" relative="1" as="geometry">
                        <mxPoint x="-3" y="1" as="offset"/>
                    </mxGeometry>
                </mxCell>
                <mxCell id="66" value="Obj&amp;nbsp; app.request" style="swimlane;fontStyle=1;align=center;verticalAlign=middle;childLayout=stackLayout;horizontal=1;startSize=29;horizontalStack=0;resizeParent=1;resizeParentMax=0;resizeLast=0;collapsible=0;marginBottom=0;html=1;whiteSpace=wrap;" vertex="1" parent="1">
                    <mxGeometry x="520" y="80" width="140" height="54" as="geometry"/>
                </mxCell>
                <mxCell id="67" value="app" style="text;html=1;strokeColor=none;fillColor=none;align=center;verticalAlign=middle;spacingLeft=4;spacingRight=4;overflow=hidden;rotatable=0;points=[[0,0.5],[1,0.5]];portConstraint=eastwest;whiteSpace=wrap;" vertex="1" parent="66">
                    <mxGeometry y="29" width="140" height="25" as="geometry"/>
                </mxCell>
                <mxCell id="68" style="edgeStyle=none;html=1;entryX=1;entryY=0.25;entryDx=0;entryDy=0;" edge="1" parent="1" source="30" target="66">
                    <mxGeometry relative="1" as="geometry"/>
                </mxCell>
                <mxCell id="69" style="edgeStyle=none;html=1;exitX=1;exitY=0.5;exitDx=0;exitDy=0;" edge="1" parent="1" source="67">
                    <mxGeometry relative="1" as="geometry">
                        <mxPoint x="720" y="50" as="targetPoint"/>
                    </mxGeometry>
                </mxCell>
                <mxCell id="70" value="Fun Router&lt;div&gt;执行router.handle(req,res,next)&lt;/div&gt;" style="swimlane;fontStyle=1;align=center;verticalAlign=middle;childLayout=stackLayout;horizontal=1;startSize=29;horizontalStack=0;resizeParent=1;resizeParentMax=0;resizeLast=0;collapsible=0;marginBottom=0;html=1;whiteSpace=wrap;" vertex="1" parent="1">
                    <mxGeometry x="1040" y="190" width="180" height="356" as="geometry"/>
                </mxCell>
                <mxCell id="71" value="params = {}" style="text;html=1;strokeColor=none;fillColor=none;align=center;verticalAlign=middle;spacingLeft=4;spacingRight=4;overflow=hidden;rotatable=0;points=[[0,0.5],[1,0.5]];portConstraint=eastwest;whiteSpace=wrap;" vertex="1" parent="70">
                    <mxGeometry y="29" width="180" height="25" as="geometry"/>
                </mxCell>
                <mxCell id="72" value="_params = []" style="text;html=1;strokeColor=none;fillColor=none;align=center;verticalAlign=middle;spacingLeft=4;spacingRight=4;overflow=hidden;rotatable=0;points=[[0,0.5],[1,0.5]];portConstraint=eastwest;whiteSpace=wrap;labelPosition=center;verticalLabelPosition=middle;" vertex="1" parent="70">
                    <mxGeometry y="54" width="180" height="25" as="geometry"/>
                </mxCell>
                <mxCell id="73" value="caseSensitive" style="text;html=1;strokeColor=none;fillColor=none;align=center;verticalAlign=middle;spacingLeft=4;spacingRight=4;overflow=hidden;rotatable=0;points=[[0,0.5],[1,0.5]];portConstraint=eastwest;whiteSpace=wrap;labelPosition=center;verticalLabelPosition=middle;" vertex="1" parent="70">
                    <mxGeometry y="79" width="180" height="25" as="geometry"/>
                </mxCell>
                <mxCell id="74" value="mergeParams" style="text;html=1;strokeColor=none;fillColor=none;align=center;verticalAlign=middle;spacingLeft=4;spacingRight=4;overflow=hidden;rotatable=0;points=[[0,0.5],[1,0.5]];portConstraint=eastwest;whiteSpace=wrap;labelPosition=center;verticalLabelPosition=middle;" vertex="1" parent="70">
                    <mxGeometry y="104" width="180" height="25" as="geometry"/>
                </mxCell>
                <mxCell id="75" value="strict" style="text;html=1;strokeColor=none;fillColor=none;align=center;verticalAlign=middle;spacingLeft=4;spacingRight=4;overflow=hidden;rotatable=0;points=[[0,0.5],[1,0.5]];portConstraint=eastwest;whiteSpace=wrap;labelPosition=center;verticalLabelPosition=middle;" vertex="1" parent="70">
                    <mxGeometry y="129" width="180" height="25" as="geometry"/>
                </mxCell>
                <mxCell id="76" value="stack = [layer,layer]" style="text;html=1;strokeColor=none;fillColor=none;align=center;verticalAlign=middle;spacingLeft=4;spacingRight=4;overflow=hidden;rotatable=0;points=[[0,0.5],[1,0.5]];portConstraint=eastwest;whiteSpace=wrap;labelPosition=center;verticalLabelPosition=middle;" vertex="1" parent="70">
                    <mxGeometry y="154" width="180" height="25" as="geometry"/>
                </mxCell>
                <mxCell id="77" style="edgeStyle=none;html=1;entryX=0;entryY=0;entryDx=0;entryDy=0;exitX=0;exitY=0.5;exitDx=0;exitDy=0;" edge="1" parent="70" source="78" target="70">
                    <mxGeometry relative="1" as="geometry">
                        <mxPoint x="290" y="191.5" as="targetPoint"/>
                        <Array as="points">
                            <mxPoint x="-30" y="110"/>
                        </Array>
                    </mxGeometry>
                </mxCell>
                <mxCell id="78" value="prototype" style="text;html=1;strokeColor=none;fillColor=none;align=center;verticalAlign=middle;spacingLeft=4;spacingRight=4;overflow=hidden;rotatable=0;points=[[0,0.5],[1,0.5]];portConstraint=eastwest;whiteSpace=wrap;labelPosition=center;verticalLabelPosition=middle;" vertex="1" parent="70">
                    <mxGeometry y="179" width="180" height="25" as="geometry"/>
                </mxCell>
                <mxCell id="79" value="param()" style="text;html=1;strokeColor=none;fillColor=none;align=center;verticalAlign=middle;spacingLeft=4;spacingRight=4;overflow=hidden;rotatable=0;points=[[0,0.5],[1,0.5]];portConstraint=eastwest;whiteSpace=wrap;labelPosition=center;verticalLabelPosition=middle;" vertex="1" parent="70">
                    <mxGeometry y="204" width="180" height="25" as="geometry"/>
                </mxCell>
                <mxCell id="80" value="handle() 处理请求" style="text;html=1;strokeColor=none;fillColor=none;align=center;verticalAlign=middle;spacingLeft=4;spacingRight=4;overflow=hidden;rotatable=0;points=[[0,0.5],[1,0.5]];portConstraint=eastwest;whiteSpace=wrap;labelPosition=center;verticalLabelPosition=middle;" vertex="1" parent="70">
                    <mxGeometry y="229" width="180" height="25" as="geometry"/>
                </mxCell>
                <mxCell id="81" value="use() 创建&lt;span style=&quot;color: rgb(0, 0, 0);&quot;&gt;中间件&lt;/span&gt;Layer" style="text;html=1;strokeColor=none;fillColor=none;align=center;verticalAlign=middle;spacingLeft=4;spacingRight=4;overflow=hidden;rotatable=0;points=[[0,0.5],[1,0.5]];portConstraint=eastwest;whiteSpace=wrap;labelPosition=center;verticalLabelPosition=middle;" vertex="1" parent="70">
                    <mxGeometry y="254" width="180" height="25" as="geometry"/>
                </mxCell>
                <mxCell id="82" value="route() 创建Route &amp;amp; Layer&amp;nbsp;&lt;div&gt;layer.handler为 route.disapatch&lt;/div&gt;" style="text;html=1;strokeColor=none;fillColor=none;align=center;verticalAlign=middle;spacingLeft=4;spacingRight=4;overflow=hidden;rotatable=0;points=[[0,0.5],[1,0.5]];portConstraint=eastwest;whiteSpace=wrap;labelPosition=center;verticalLabelPosition=middle;" vertex="1" parent="70">
                    <mxGeometry y="279" width="180" height="41" as="geometry"/>
                </mxCell>
                <mxCell id="83" value="get/post/put/all...() 调用this.route(); 和 route.get/post/..." style="text;html=1;strokeColor=none;fillColor=none;align=center;verticalAlign=middle;spacingLeft=4;spacingRight=4;overflow=hidden;rotatable=0;points=[[0,0.5],[1,0.5]];portConstraint=eastwest;whiteSpace=wrap;labelPosition=center;verticalLabelPosition=middle;" vertex="1" parent="70">
                    <mxGeometry y="320" width="180" height="36" as="geometry"/>
                </mxCell>
                <mxCell id="84" style="edgeStyle=none;html=1;entryX=0;entryY=0;entryDx=0;entryDy=0;exitX=1;exitY=0.5;exitDx=0;exitDy=0;" edge="1" parent="1" source="36" target="70">
                    <mxGeometry relative="1" as="geometry"/>
                </mxCell>
                <mxCell id="85" value="Fun Route(path)" style="swimlane;fontStyle=1;align=center;verticalAlign=middle;childLayout=stackLayout;horizontal=1;startSize=29;horizontalStack=0;resizeParent=1;resizeParentMax=0;resizeLast=0;collapsible=0;marginBottom=0;html=1;whiteSpace=wrap;" vertex="1" parent="1">
                    <mxGeometry x="1370" y="190" width="180" height="202" as="geometry"/>
                </mxCell>
                <mxCell id="86" value="path = {}" style="text;html=1;strokeColor=none;fillColor=none;align=center;verticalAlign=middle;spacingLeft=4;spacingRight=4;overflow=hidden;rotatable=0;points=[[0,0.5],[1,0.5]];portConstraint=eastwest;whiteSpace=wrap;" vertex="1" parent="85">
                    <mxGeometry y="29" width="180" height="25" as="geometry"/>
                </mxCell>
                <mxCell id="87" value="stack = [layer(/), layer(/)]" style="text;html=1;strokeColor=none;fillColor=none;align=center;verticalAlign=middle;spacingLeft=4;spacingRight=4;overflow=hidden;rotatable=0;points=[[0,0.5],[1,0.5]];portConstraint=eastwest;whiteSpace=wrap;labelPosition=center;verticalLabelPosition=middle;" vertex="1" parent="85">
                    <mxGeometry y="54" width="180" height="25" as="geometry"/>
                </mxCell>
                <mxCell id="88" value="methods = { get: true, post: true, ...}" style="text;html=1;strokeColor=none;fillColor=none;align=center;verticalAlign=middle;spacingLeft=4;spacingRight=4;overflow=hidden;rotatable=0;points=[[0,0.5],[1,0.5]];portConstraint=eastwest;whiteSpace=wrap;labelPosition=center;verticalLabelPosition=middle;" vertex="1" parent="85">
                    <mxGeometry y="79" width="180" height="41" as="geometry"/>
                </mxCell>
                <mxCell id="89" value="get/post/put等() 创建路由处理器Layer" style="text;html=1;strokeColor=none;fillColor=none;align=center;verticalAlign=middle;spacingLeft=4;spacingRight=4;overflow=hidden;rotatable=0;points=[[0,0.5],[1,0.5]];portConstraint=eastwest;whiteSpace=wrap;labelPosition=center;verticalLabelPosition=middle;" vertex="1" parent="85">
                    <mxGeometry y="120" width="180" height="41" as="geometry"/>
                </mxCell>
                <mxCell id="90" value="dispatch() 处理请求,根据req.method与layer.method匹配" style="text;html=1;strokeColor=none;fillColor=none;align=center;verticalAlign=middle;spacingLeft=4;spacingRight=4;overflow=hidden;rotatable=0;points=[[0,0.5],[1,0.5]];portConstraint=eastwest;whiteSpace=wrap;labelPosition=center;verticalLabelPosition=middle;" vertex="1" parent="85">
                    <mxGeometry y="161" width="180" height="41" as="geometry"/>
                </mxCell>
                <mxCell id="91" value="Fun Layer(path,options, dn)&lt;div&gt;处理函数 / 中间件&lt;/div&gt;" style="swimlane;fontStyle=1;align=center;verticalAlign=middle;childLayout=stackLayout;horizontal=1;startSize=29;horizontalStack=0;resizeParent=1;resizeParentMax=0;resizeLast=0;collapsible=0;marginBottom=0;html=1;whiteSpace=wrap;" vertex="1" parent="1">
                    <mxGeometry x="1360" y="410" width="180" height="204" as="geometry"/>
                </mxCell>
                <mxCell id="92" value="handle= fn" style="text;html=1;strokeColor=none;fillColor=none;align=center;verticalAlign=middle;spacingLeft=4;spacingRight=4;overflow=hidden;rotatable=0;points=[[0,0.5],[1,0.5]];portConstraint=eastwest;whiteSpace=wrap;labelPosition=center;verticalLabelPosition=middle;" vertex="1" parent="91">
                    <mxGeometry y="29" width="180" height="25" as="geometry"/>
                </mxCell>
                <mxCell id="93" value="route 指向Route实例" style="text;html=1;strokeColor=none;fillColor=none;align=center;verticalAlign=middle;spacingLeft=4;spacingRight=4;overflow=hidden;rotatable=0;points=[[0,0.5],[1,0.5]];portConstraint=eastwest;whiteSpace=wrap;labelPosition=center;verticalLabelPosition=middle;" vertex="1" parent="91">
                    <mxGeometry y="54" width="180" height="25" as="geometry"/>
                </mxCell>
                <mxCell id="94" value="...." style="text;html=1;strokeColor=none;fillColor=none;align=center;verticalAlign=middle;spacingLeft=4;spacingRight=4;overflow=hidden;rotatable=0;points=[[0,0.5],[1,0.5]];portConstraint=eastwest;whiteSpace=wrap;labelPosition=center;verticalLabelPosition=middle;" vertex="1" parent="91">
                    <mxGeometry y="79" width="180" height="25" as="geometry"/>
                </mxCell>
                <mxCell id="95" value="method = get/post/httpMethod" style="text;html=1;strokeColor=none;fillColor=none;align=center;verticalAlign=middle;spacingLeft=4;spacingRight=4;overflow=hidden;rotatable=0;points=[[0,0.5],[1,0.5]];portConstraint=eastwest;whiteSpace=wrap;labelPosition=center;verticalLabelPosition=middle;" vertex="1" parent="91">
                    <mxGeometry y="104" width="180" height="25" as="geometry"/>
                </mxCell>
                <mxCell id="96" value="keys = []" style="text;html=1;strokeColor=none;fillColor=none;align=center;verticalAlign=middle;spacingLeft=4;spacingRight=4;overflow=hidden;rotatable=0;points=[[0,0.5],[1,0.5]];portConstraint=eastwest;whiteSpace=wrap;labelPosition=center;verticalLabelPosition=middle;" vertex="1" parent="91">
                    <mxGeometry y="129" width="180" height="25" as="geometry"/>
                </mxCell>
                <mxCell id="97" value="params" style="text;html=1;strokeColor=none;fillColor=none;align=center;verticalAlign=middle;spacingLeft=4;spacingRight=4;overflow=hidden;rotatable=0;points=[[0,0.5],[1,0.5]];portConstraint=eastwest;whiteSpace=wrap;labelPosition=center;verticalLabelPosition=middle;" vertex="1" parent="91">
                    <mxGeometry y="154" width="180" height="25" as="geometry"/>
                </mxCell>
                <mxCell id="98" value="regexp" style="text;html=1;strokeColor=none;fillColor=none;align=center;verticalAlign=middle;spacingLeft=4;spacingRight=4;overflow=hidden;rotatable=0;points=[[0,0.5],[1,0.5]];portConstraint=eastwest;whiteSpace=wrap;labelPosition=center;verticalLabelPosition=middle;" vertex="1" parent="91">
                    <mxGeometry y="179" width="180" height="25" as="geometry"/>
                </mxCell>
                <mxCell id="99" value="Route" style="whiteSpace=wrap;html=1;labelPosition=center;verticalLabelPosition=top;align=center;verticalAlign=bottom;" vertex="1" parent="1">
                    <mxGeometry x="1260" y="740" width="600" height="120" as="geometry"/>
                </mxCell>
                <mxCell id="100" value="" style="edgeStyle=none;html=1;" edge="1" parent="1" source="101" target="103">
                    <mxGeometry relative="1" as="geometry"/>
                </mxCell>
                <mxCell id="101" value="layer&lt;div&gt;get - handler&lt;/div&gt;" style="whiteSpace=wrap;html=1;fillColor=#d5e8d4;strokeColor=#82b366;" vertex="1" parent="1">
                    <mxGeometry x="1280" y="765" width="120" height="60" as="geometry"/>
                </mxCell>
                <mxCell id="102" value="" style="edgeStyle=none;html=1;" edge="1" parent="1" source="103" target="105">
                    <mxGeometry relative="1" as="geometry"/>
                </mxCell>
                <mxCell id="103" value="layer&lt;div&gt;get - handler&lt;/div&gt;" style="whiteSpace=wrap;html=1;fillColor=#d5e8d4;strokeColor=#82b366;" vertex="1" parent="1">
                    <mxGeometry x="1430" y="765" width="120" height="60" as="geometry"/>
                </mxCell>
                <mxCell id="104" value="" style="edgeStyle=none;html=1;" edge="1" parent="1" source="105" target="106">
                    <mxGeometry relative="1" as="geometry"/>
                </mxCell>
                <mxCell id="105" value="layer&lt;div&gt;post - handler&lt;/div&gt;" style="whiteSpace=wrap;html=1;fillColor=#d5e8d4;strokeColor=#82b366;" vertex="1" parent="1">
                    <mxGeometry x="1570" y="765" width="120" height="60" as="geometry"/>
                </mxCell>
                <mxCell id="106" value="layer&lt;div&gt;all - handler&lt;/div&gt;" style="whiteSpace=wrap;html=1;fillColor=#d5e8d4;strokeColor=#82b366;" vertex="1" parent="1">
                    <mxGeometry x="1710" y="765" width="120" height="60" as="geometry"/>
                </mxCell>
            </root>
        </mxGraphModel>
    </diagram>
</mxfile>